<mxfile host="65bd71144e">
    <diagram id="R_P2X7E8zHtIci7hdtsM" name="Page-1">
        <mxGraphModel dx="554" dy="475" grid="1" gridSize="10" guides="1" tooltips="1" connect="1" arrows="1" fold="1" page="1" pageScale="1" pageWidth="850" pageHeight="1100" math="0" shadow="0">
            <root>
                <mxCell id="0"/>
                <mxCell id="1" parent="0"/>
                <mxCell id="2" value="my_Portfolio" style="text;strokeColor=none;fillColor=none;html=1;fontSize=24;fontStyle=1;verticalAlign=middle;align=center;" vertex="1" parent="1">
                    <mxGeometry x="70" y="50" width="160" height="40" as="geometry"/>
                </mxCell>
                <mxCell id="10" style="edgeStyle=none;html=1;entryX=0.438;entryY=1;entryDx=0;entryDy=0;entryPerimeter=0;" edge="1" parent="1" source="5" target="2">
                    <mxGeometry relative="1" as="geometry"/>
                </mxCell>
                <mxCell id="5" value="&lt;ul&gt;&lt;li&gt;NavBar&lt;/li&gt;&lt;li&gt;Content&lt;/li&gt;&lt;li&gt;Footer&lt;/li&gt;&lt;/ul&gt;" style="text;strokeColor=none;fillColor=none;html=1;whiteSpace=wrap;verticalAlign=middle;overflow=hidden;" vertex="1" parent="1">
                    <mxGeometry x="90" y="140" width="100" height="90" as="geometry"/>
                </mxCell>
                <mxCell id="12" style="edgeStyle=none;html=1;" edge="1" parent="1" source="11">
                    <mxGeometry relative="1" as="geometry">
                        <mxPoint x="190" y="160" as="targetPoint"/>
                    </mxGeometry>
                </mxCell>
                <mxCell id="11" value="&lt;ul&gt;&lt;li&gt;logo&lt;/li&gt;&lt;li&gt;home&lt;/li&gt;&lt;li&gt;about us&lt;/li&gt;&lt;li&gt;contact&lt;/li&gt;&lt;/ul&gt;" style="text;strokeColor=none;fillColor=none;html=1;whiteSpace=wrap;verticalAlign=middle;overflow=hidden;" vertex="1" parent="1">
                    <mxGeometry x="425" y="80" width="100" height="100" as="geometry"/>
                </mxCell>
                <mxCell id="15" style="edgeStyle=none;html=1;entryX=0.9;entryY=0.444;entryDx=0;entryDy=0;entryPerimeter=0;" edge="1" parent="1" source="14" target="5">
                    <mxGeometry relative="1" as="geometry"/>
                </mxCell>
                <mxCell id="14" value="&lt;ol&gt;&lt;li&gt;Introduction&amp;nbsp;&lt;/li&gt;&lt;li&gt;Skills&lt;/li&gt;&lt;li&gt;Projects&lt;/li&gt;&lt;/ol&gt;" style="text;strokeColor=none;fillColor=none;html=1;whiteSpace=wrap;verticalAlign=middle;overflow=hidden;" vertex="1" parent="1">
                    <mxGeometry x="340" y="200" width="120" height="80" as="geometry"/>
                </mxCell>
                <mxCell id="17" style="edgeStyle=none;html=1;entryX=0.8;entryY=0.778;entryDx=0;entryDy=0;entryPerimeter=0;" edge="1" parent="1" source="16" target="5">
                    <mxGeometry relative="1" as="geometry"/>
                </mxCell>
                <mxCell id="16" value="&lt;ul&gt;&lt;li&gt;about us&lt;/li&gt;&lt;li&gt;contact&lt;/li&gt;&lt;/ul&gt;" style="text;strokeColor=none;fillColor=none;html=1;whiteSpace=wrap;verticalAlign=middle;overflow=hidden;" vertex="1" parent="1">
                    <mxGeometry x="210" y="270" width="100" height="80" as="geometry"/>
                </mxCell>
            </root>
        </mxGraphModel>
    </diagram>
</mxfile>